<svg xmlns="http://www.w3.org/2000/svg" viewBox="0 0 300 200" width="600" height="400">
  <defs>
    <linearGradient id="bgGrad" x1="0%" y1="0%" x2="100%" y2="100%">
      <stop offset="0%" stop-color="#f7f6f5"></stop>
      <stop offset="100%" stop-color="#e7e5e2"></stop>
    </linearGradient>
    <linearGradient id="badgeGrad" x1="0%" y1="0%" x2="0%" y2="100%">
      <stop offset="0%" stop-color="#ffffff"></stop>
      <stop offset="100%" stop-color="#eeece9"></stop>
    </linearGradient>
    <clipPath id="roundedClip">
      <rect x="0" y="0" width="300" height="200" rx="14" ry="14"></rect>
    </clipPath>
  </defs>

  <g clip-path="url(#roundedClip)">
    <rect x="0" y="0" width="300" height="200" fill="url(#bgGrad)"></rect>
    <line x1="0" y1="144" x2="300" y2="144" stroke="#dedbd7" stroke-width="1"></line>
    <circle cx="150" cy="92" r="48" fill="url(#badgeGrad)" stroke="#e2dfdb" stroke-width="1"></circle>

    <g transform="translate(116.77, 64.31) scale(1.846)" stroke="#8f8b86" stroke-width="2.4" stroke-linecap="round" stroke-linejoin="round" fill="none">
      <path d="M2 17 L2 30 L34 30 L34 17"></path>
      <path d="M-2 18 L18 4 L38 18"></path>
      <rect x="14" y="20" width="8" height="10" fill="#e7e4e0" stroke="#8f8b86"></rect>
      <line x1="18" y1="20" x2="18" y2="30" stroke="#c9c5c0" stroke-width="1.4"></line>
    </g>

    <g transform="translate(182.64, 121.76)">
      <circle cx="0" cy="0" r="9" fill="#ffffff" stroke="#d8d4cf" stroke-width="1"></circle>
      <path d="M-4.2 -4.2 L4.2 4.2" stroke="#a39d96" stroke-width="1.6" stroke-linecap="round"></path>
      <path d="M-5.5 1 L-3 -4 L1 -4 L2.2 -2.3 L5.5 -2.3 L5.5 4 L-5.5 4 Z" fill="none" stroke="#a39d96" stroke-width="1.4" stroke-linejoin="round"></path>
    </g>

    <text x="150" y="172.0" text-anchor="middle" font-family="Helvetica, Arial, sans-serif" font-size="12" fill="#9c9791" letter-spacing="0.3">Aucune photo disponible</text>
  </g>
</svg>