<svg width="46" height="46" viewBox="0 0 46 46" fill="none" xmlns="http://www.w3.org/2000/svg">
<path d="M15.7714 14.3378C15.7714 13.546 16.4134 12.9041 17.2052 12.9041H35.8443C36.6361 12.9041 37.2781 13.546 37.2781 14.3378C37.2781 15.1297 36.6361 15.7716 35.8443 15.7716H17.2052C16.4134 15.7716 15.7714 15.1296 15.7714 14.3378ZM35.8443 21.5067H10.0363C9.24449 21.5067 8.60254 22.1487 8.60254 22.9405C8.60254 23.7323 9.24449 24.3743 10.0363 24.3743H35.8443C36.6361 24.3743 37.2781 23.7323 37.2781 22.9405C37.2781 22.1487 36.6361 21.5067 35.8443 21.5067ZM35.8443 30.1094H22.9403C22.1485 30.1094 21.5065 30.7513 21.5065 31.5432C21.5065 32.3349 22.1485 32.9769 22.9403 32.9769H35.8443C36.6361 32.9769 37.2781 32.3349 37.2781 31.5432C37.2781 30.7513 36.6361 30.1094 35.8443 30.1094Z" fill="#565656"/>
</svg>
